<svg width="208" height="208" viewBox="0 0 208 208" fill="none" xmlns="http://www.w3.org/2000/svg">
<path d="M103.999 24.46L35.115 64.2295V143.77L103.999 183.54L172.882 143.77V64.2295L103.999 24.46Z" stroke="#0091FF" stroke-width="18" stroke-linecap="round" stroke-linejoin="round"/>
<path fill-rule="evenodd" clip-rule="evenodd" d="M83.8344 92.3581L103.997 80.7173L124.159 92.3581V115.639L103.997 127.28L83.8344 115.639V92.3581Z" stroke="#0091FF" stroke-width="12" stroke-linecap="round" stroke-linejoin="round"/>
<path fill-rule="evenodd" clip-rule="evenodd" d="M83.8344 92.3581L103.997 80.7173L124.159 92.3581V115.639L103.997 127.28L83.8344 115.639V92.3581Z" stroke="#0091FF" stroke-width="12" stroke-linecap="round" stroke-linejoin="round"/>
<path fill-rule="evenodd" clip-rule="evenodd" d="M104.026 55.0286V81Z" fill="white"/>
<path fill-rule="evenodd" clip-rule="evenodd" d="M85 115.5L62.4957 128.314Z" fill="white"/>
<path fill-rule="evenodd" clip-rule="evenodd" d="M146.397 128.602L125.5 115.5Z" fill="white"/>
<path d="M104.026 55.0286V81M104.026 55.0286L118.329 63.2855M104.026 55.0286L89.7233 63.2855M75.7975 136.767L61.4957 128.509V111.994M85 115.5L62.4957 128.314M146.397 128.602L125.5 115.5M146.397 128.602V112.086M146.397 128.602L132.095 136.859" stroke="#0091FF" stroke-width="12" stroke-linecap="round" stroke-linejoin="round"/>
</svg>
